<?xml version="1.0" encoding="UTF-8"?>
<svg id="Layer_1" xmlns="http://www.w3.org/2000/svg" version="1.1" viewBox="0 0 1282.25 239.8">
  <defs>
    <style>
      .st0 { fill: #4257a1; }
      .st1 { fill: #0ce000; }
      .st2 { fill: #8d2aff; }
    </style>
  </defs>
  <path class="st0" d="M853.94,5.44v228.92h228.91V5.44h-228.91ZM877.05,28.55h182.69l-.12,65.89c-24.75-28.61-54.71-44.18-91.75-44.06-36.63.12-66.36,15.39-90.82,43.83V28.55ZM924.8,124.81c3.57,9.48,9.83,16.97,18.32,22.47,16.56,10.83,39.97,9.54,54.95-3.57,13.4-11.7,23.64-32.13,9.66-60.74,17.38,8.37,29.55,20.01,38.68,34.93.7,1.17-.06,3.86-.94,5.33-34.11,55.94-119.84,56.18-154.25.41-.99-1.58-1.93-4.51-1.17-5.79,8.84-15.21,21.42-26.39,38.91-35.05-7.72,14.57-9.42,28.09-4.15,42.01ZM945.4,107.72c.18-12.35,10.47-22.35,22.88-22.24,12.64.12,22.82,10.47,22.65,23.17-.12,12.17-10.53,22.24-22.94,22.18-12.76-.12-22.82-10.42-22.59-23.11ZM1059.74,211.24h-182.69v-65.07c23.93,27.56,54.48,43.13,91.4,42.95,36.57-.23,66.47-15.39,91.28-44.35v66.47Z"/>
  <g>
    <path class="st0" d="M0,19.38h86.72c52.09,0,91.23,32.66,91.23,99.39,0,58.28-29.85,101.64-91.23,101.64H0V19.38ZM44.21,183.25h39.42c25.62,0,50.12-15.77,50.12-60.26,0-40.54-14.08-66.45-58-66.45h-31.53v126.7Z"/>
    <path class="st0" d="M353.93,197.61c-15.49,19.99-35.76,27.59-55.19,27.59-62.23,0-98.83-46.46-98.83-104.46S236.52,14.6,298.74,14.6c41.11,0,79.96,25.34,84.75,70.95h-42.23c-5.07-22.24-21.68-33.79-42.52-33.79-39.7,0-54.62,33.79-54.62,68.98s14.92,67.29,54.62,67.29c28.72,0,45.33-15.49,47.87-43.36h-44.49v-32.94h84.47v108.68h-28.16l-4.51-22.81Z"/>
    <g>
      <path class="st0" d="M557.83,86.96c-2.82-19.99-21.96-35.19-43.92-35.19-39.7,0-54.62,33.79-54.62,68.98s14.92,67.29,54.62,67.29c27.03,0,42.23-18.58,45.61-45.05h42.8c-4.51,50.12-39.14,82.22-88.41,82.22-62.23,0-98.83-46.46-98.83-104.46s36.6-106.15,98.83-106.15c44.21,0,81.37,25.9,86.72,72.36h-42.8Z"/>
      <path class="st0" d="M725.93,220.42h-49.84l-65.32-201.04h45.61l44.77,141.34h.56l45.33-141.34h45.61l-66.73,201.04Z"/>
    </g>
  </g>
  <g>
    <rect class="st1" x="1175.12" y="171.11" width="68.7" height="68.7" rx="34.35" ry="34.35"/>
    <polygon class="st2" points="1209.47 148.9 1282.25 0 1136.69 0 1209.47 148.9"/>
  </g>
</svg>
