<?xml version="1.0" encoding="UTF-8"?>
<svg id="Layer_1" xmlns="http://www.w3.org/2000/svg" version="1.1" viewBox="0 0 1621.47 611.45">
  <defs>
    <style>
      .st0 { fill: #4257a1; }
      .st1 { fill: #0ce000; }
      .st2 { fill: #8d2aff; }
    </style>
  </defs>
  <g>
    <path class="st0" d="M0,6.53v600.88h600.88V6.53H0ZM60.67,67.2h479.54l-.31,172.95c-64.97-75.11-143.62-115.97-240.84-115.66-96.15.31-174.18,40.4-238.39,115.05V67.2ZM186.01,319.87c9.37,24.88,25.8,44.54,48.08,58.98,43.47,28.42,104.91,25.04,144.23-9.37,35.17-30.72,62.05-84.33,25.34-159.44,45.62,21.97,77.57,52.53,101.53,91.7,1.84,3.07-.15,10.14-2.46,13.98-89.55,146.84-314.57,147.45-404.89,1.07-2.61-4.15-5.07-11.83-3.07-15.21,23.19-39.93,56.22-69.27,102.14-92.01-20.28,38.25-24.73,73.73-10.91,110.28ZM240.08,275.02c.46-32.41,27.49-58.67,60.06-58.37,33.18.31,59.9,27.49,59.44,60.82-.31,31.95-27.65,58.37-60.21,58.21-33.48-.31-59.9-27.34-59.29-60.67ZM540.21,546.74H60.67v-170.8c62.82,72.34,143,113.2,239.92,112.74,96-.61,174.49-40.4,239.61-116.43v174.49Z"/>
    <g>
      <path class="st0" d="M674.49,6.55h118.61c71.24,0,124.77,44.67,124.77,135.94,0,79.72-40.82,139.02-124.77,139.02h-118.61V6.55ZM734.95,230.68h53.91c35.04,0,68.55-21.57,68.55-82.41,0-55.45-19.25-90.88-79.33-90.88h-43.13v173.3Z"/>
      <path class="st0" d="M1158.57,250.32c-21.18,27.34-48.91,37.74-75.48,37.74-85.11,0-135.17-63.54-135.17-142.87S997.98,0,1083.09,0c56.23,0,109.37,34.66,115.92,97.04h-57.77c-6.93-30.42-29.65-46.21-58.15-46.21-54.3,0-74.71,46.21-74.71,94.35s20.41,92.04,74.71,92.04c39.28,0,62-21.18,65.47-59.31h-60.85v-45.06h115.53v148.65h-38.51l-6.16-31.19Z"/>
      <path class="st0" d="M882.64,422.36c-3.85-27.34-30.04-48.14-60.08-48.14-54.3,0-74.71,46.21-74.71,94.35s20.41,92.04,74.71,92.04c36.97,0,57.77-25.42,62.39-61.62h58.54c-6.16,68.55-53.53,112.45-120.92,112.45-85.11,0-135.17-63.54-135.17-142.87s50.06-145.18,135.17-145.18c60.46,0,111.29,35.43,118.61,98.97h-58.54Z"/>
      <path class="st0" d="M1112.55,604.9h-68.16l-89.34-274.96h62.39l61.23,193.32h.77l62-193.32h62.39l-91.27,274.96Z"/>
    </g>
  </g>
  <rect class="st1" x="1353.66" y="427.76" width="171.74" height="171.74" rx="85.87" ry="85.87"/>
  <polygon class="st2" points="1439.53 372.25 1621.47 0 1257.58 0 1439.53 372.25"/>
</svg>
